# xmcd
#
# Track frame offsets: 
#        150
#        16127
#        36279
#        51711
#        76493
#        90938
#        110755
#        127829
#        146936
#        165787
#
# Disc length: 2463 seconds
#
# Revision: 0
# Processed by: cddbd v1.5.2PL0 Copyright (c) Steve Scherf et al.
# Submitted via: ExactAudioCopy v0.99pb4
#
DISCID=7c099d0a
DTITLE=Jape - Ritual
DYEAR=2008
DGENRE=Pop
TTITLE0=Christopher And Anthony
TTITLE1=I Was A Man
TTITLE2=Replays
TTITLE3=Graveyard
TTITLE4=Phil Lynott
TTITLE5=Streetwise
TTITLE6=At The Heart Of All This Strangeness
TTITLE7=Apple In An Orchard
TTITLE8=Strike Me Down
TTITLE9=Nothing Lasts Forever
EXTD=
EXTT0=
EXTT1=
EXTT2=
EXTT3=
EXTT4=
EXTT5=
EXTT6=
EXTT7=
EXTT8=
EXTT9=
PLAYORDER=
